<svg id="Capa_1" data-name="Capa 1" xmlns="http://www.w3.org/2000/svg" viewBox="0 0 70.04 13.72"><defs><style>.cls-1{fill:#fff;}.cls-2{fill:#8347ad;}</style></defs><title>logo</title><path class="cls-1" d="M11.54,13.72v-1.8h1.53V4.85H11.54V3h5.33V4.85H15.28v7.07h3.06V10.15h2.08v3.57Z"/><path class="cls-1" d="M21.31,13.72v-1.8h1.26V4.85H21.31V3h4.9L28.35,9.3,30.51,3h4.65V4.85H33.89v7.07h1.27v1.8H30.59v-1.8h1.18V4.85h-.24l-3,8.87H27.45L24.39,4.85h-.23v7.07h1.28v1.8Z"/><path class="cls-1" d="M47.83,13.72V11.93h1.79v1.79Z"/><path class="cls-1" d="M56,11.92v1.8H50.83v-1.8h1.25V4.85H50.83V3H56A3.92,3.92,0,0,1,58.76,4a3.28,3.28,0,0,1,1,2.48,3.7,3.7,0,0,1-.35,1.62,2.77,2.77,0,0,1-.88,1.11,3.09,3.09,0,0,1-1.23.53,8.29,8.29,0,0,1-1.73.15h-.93v2.07ZM54.62,8.06H55c.87,0,1.43-.15,1.68-.46a1.78,1.78,0,0,0,.38-1.16,1.85,1.85,0,0,0-.26-1,1.18,1.18,0,0,0-.6-.51,4.76,4.76,0,0,0-1.1-.09h-.48Z"/><path class="cls-1" d="M70,11.92v1.8h-3l-2.2-4.67H63.74v2.87H65v1.8H60.14v-1.8H61.2V4.85H60.14V3h5.61a2.9,2.9,0,0,1,2.4.92A3.24,3.24,0,0,1,68.88,6a2.76,2.76,0,0,1-1.69,2.65l1.59,3.23Zm-6.3-4.58h.87q1.62,0,1.62-1.26a1.14,1.14,0,0,0-.37-.92,1.53,1.53,0,0,0-1-.31h-1.1Z"/><path class="cls-1" d="M3.75,10.11,3.2,11.94H4.58v1.75H0V11.94H1.28l2-7.07h0L3.85,3H6.74l.54,1.86h0l2.17,7.07h1.24v1.75H5.6V11.94H6.92l-.49-1.83L6,8.54,5.15,5.33,4.22,8.54Z"/><rect class="cls-2" x="1.77" width="7.09" height="1.73"/><path class="cls-1" d="M39.7,10.11l-.55,1.83h1.39v1.75H36V11.94h1.28l2-7.07h0L39.81,3h2.88l.55,1.86h0l2.17,7.07h1.23v1.75H41.55V11.94h1.33l-.49-1.83L42,8.54,41.1,5.33l-.93,3.21Z"/></svg>